<?xml version="1.0" encoding="UTF-8"?>

<svg version="1.2" baseProfile="tiny" width="105mm" height="80mm" viewBox="0 0 10500 8000" preserveAspectRatio="xMidYMid" fill-rule="evenodd" stroke-width="28.222" stroke-linejoin="round" xmlns="http://www.w3.org/2000/svg" xmlns:xlink="http://www.w3.org/1999/xlink" xml:space="preserve">
 <g visibility="visible" id="MasterSlide_1_Standard">
  <desc>Master slide
  </desc>
  <rect fill="none" stroke="none" x="0" y="0" width="10500" height="8000"/>
 </g>
 <g visibility="visible" id="Slide_1_page6">
  <g>
   <path fill="none" stroke="rgb(0,153,0)" id="Drawing_1_0" stroke-width="212" stroke-linejoin="round" d="M 500,4600 L 8045,5429"/>
   <path fill="rgb(0,153,0)" stroke="none" id="Drawing_1_1" d="M 8084,5879 L 7984,5986 9600,5599 8106,4872 8177,4994 8229,5135 8259,5286 8258,5446 8228,5603 8166,5749 8084,5879 Z"/>
  </g>
  <g>
   <path fill="none" stroke="rgb(0,153,0)" id="Drawing_2_0" stroke-width="212" stroke-linejoin="round" d="M 507,4300 L 7849,3309"/>
   <path fill="rgb(0,153,0)" stroke="none" id="Drawing_2_1" d="M 7996,3737 L 7924,3864 9400,3099 7775,2754 7873,2855 7958,2979 8023,3118 8061,3274 8069,3434 8044,3590 7996,3737 Z"/>
  </g>
  <g>
   <path fill="none" stroke="rgb(0,153,0)" id="Drawing_3_0" stroke-width="212" stroke-linejoin="round" stroke-dasharray="418,418" d="M 9810,4600 L 2353,5510"/>
   <path fill="rgb(0,153,0)" stroke="none" id="Drawing_3_1" d="M 2212,5081 L 2285,4955 800,5701 2421,6066 2324,5964 2241,5839 2178,5699 2142,5543 2135,5383 2162,5227 2212,5081 Z"/>
  </g>
  <g>
   <path fill="none" stroke="rgb(0,153,0)" id="Drawing_4_0" stroke-width="212" stroke-linejoin="round" stroke-dasharray="418,418" d="M 9800,4199 L 2455,3375"/>
   <path fill="rgb(0,153,0)" stroke="none" id="Drawing_4_1" d="M 2417,2924 L 2517,2818 900,3201 2392,3931 2321,3809 2269,3668 2241,3517 2242,3357 2272,3200 2334,3055 2417,2924 Z"/>
  </g>
 </g>
</svg>