<?xml version="1.0" encoding="UTF-8"?>

<svg version="1.2" baseProfile="tiny" width="176mm" height="125mm" viewBox="0 0 17600 12500" preserveAspectRatio="xMidYMid" fill-rule="evenodd" stroke-width="28.222" stroke-linejoin="round" xmlns="http://www.w3.org/2000/svg" xmlns:xlink="http://www.w3.org/1999/xlink" xml:space="preserve">
 <g visibility="visible" id="MasterSlide_1_Standard">
  <desc>Master slide
  </desc>
  <rect fill="none" stroke="none" x="0" y="0" width="17600" height="12500"/>
 </g>
 <g visibility="visible" id="Slide_1_page2">
  <g>
   <path fill="rgb(255,51,51)" stroke="none" d="M 11707,6443 L 11707,6053 11577,6053 11837,5923 12098,6053 11967,6053 11967,6443 11707,6443 Z"/>
   <rect fill="none" stroke="none" x="11577" y="5923" width="522" height="521"/>
   <rect fill="none" stroke="none" x="11577" y="5924" width="521" height="520"/>
  </g>
  <g>
   <path fill="rgb(255,51,51)" stroke="none" d="M 10671,6444 L 10671,6005 10525,6005 10818,5859 11111,6005 10964,6005 10964,6444 10671,6444 Z"/>
   <rect fill="none" stroke="none" x="10525" y="5859" width="587" height="586"/>
   <rect fill="none" stroke="none" x="10526" y="5859" width="586" height="585"/>
  </g>
  <g>
   <path fill="rgb(255,51,51)" stroke="none" d="M 9504,6444 L 9504,5955 9358,5955 9650,5793 9943,5955 9796,5955 9796,6444 9504,6444 Z"/>
   <rect fill="none" stroke="none" x="9358" y="5793" width="586" height="652"/>
   <rect fill="none" stroke="none" x="9358" y="5793" width="585" height="651"/>
  </g>
  <g>
   <path fill="rgb(255,51,51)" stroke="none" d="M 8302,6443 L 8302,5906 8124,5906 8481,5727 8839,5906 8660,5906 8660,6443 8302,6443 Z"/>
   <rect fill="none" stroke="none" x="8124" y="5727" width="716" height="717"/>
   <rect fill="none" stroke="none" x="8124" y="5728" width="715" height="716"/>
  </g>
  <g>
   <path fill="rgb(255,51,51)" stroke="none" d="M 7083,6444 L 7083,5810 6889,5810 7278,5599 7668,5810 7474,5810 7474,6444 7083,6444 Z"/>
   <rect fill="none" stroke="none" x="6889" y="5599" width="780" height="846"/>
   <rect fill="none" stroke="none" x="6890" y="5599" width="780" height="845"/>
  </g>
  <g>
   <path fill="rgb(255,51,51)" stroke="none" d="M 5495,6443 L 5495,5372 5203,5372 5787,5015 6372,5372 6079,5372 6079,6443 5495,6443 Z"/>
   <rect fill="none" stroke="none" x="5202" y="5015" width="1171" height="1429"/>
   <rect fill="none" stroke="none" x="5203" y="5015" width="1169" height="1429"/>
  </g>
  <g>
   <path fill="rgb(255,51,51)" stroke="none" d="M 3662,6442 L 3662,2134 3289,2134 4036,699 4783,2134 4409,2134 4409,6442 3662,6442 Z"/>
   <rect fill="none" stroke="none" x="3289" y="699" width="1495" height="5744"/>
   <rect fill="none" stroke="none" x="3290" y="700" width="1494" height="5744"/>
  </g>
  <g>
   <path fill="rgb(255,51,51)" stroke="none" d="M 12733,6443 L 12733,6101 12603,6101 12863,5987 13123,6101 12993,6101 12993,6443 12733,6443 Z"/>
   <rect fill="none" stroke="none" x="12603" y="5987" width="521" height="457"/>
   <rect fill="none" stroke="none" x="12604" y="5988" width="520" height="456"/>
  </g>
  <g>
   <path fill="rgb(255,51,51)" stroke="none" d="M 13625,6444 L 13625,6150 13511,6150 13739,6053 13967,6150 13853,6150 13853,6444 13625,6444 Z"/>
   <rect fill="none" stroke="none" x="13511" y="6053" width="457" height="392"/>
   <rect fill="none" stroke="none" x="13512" y="6053" width="456" height="391"/>
  </g>
  <g>
   <path fill="rgb(255,51,51)" stroke="none" d="M 15427,6444 L 15427,6150 15330,6150 15524,6053 15719,6150 15622,6150 15622,6444 15427,6444 Z"/>
   <rect fill="none" stroke="none" x="15329" y="6053" width="391" height="392"/>
   <rect fill="none" stroke="none" x="15331" y="6053" width="390" height="391"/>
  </g>
  <g>
   <path fill="rgb(0,153,0)" stroke="none" d="M 6178,6773 L 6178,9987 6567,9987 5788,11058 5008,9987 5398,9987 5398,6773 6178,6773 Z"/>
   <rect fill="none" stroke="none" x="5008" y="6773" width="1560" height="4286"/>
   <rect fill="none" stroke="none" x="5008" y="6774" width="1560" height="4286"/>
  </g>
  <g>
   <path fill="rgb(0,153,51)" stroke="none" d="M 7654,6773 L 7654,9354 7995,9354 7313,10214 6630,9354 6972,9354 6972,6773 7654,6773 Z"/>
   <rect fill="none" stroke="none" x="6629" y="6773" width="1367" height="3442"/>
   <rect fill="none" stroke="none" x="6630" y="6774" width="1366" height="3442"/>
  </g>
  <g>
   <path fill="rgb(0,153,51)" stroke="none" d="M 8774,6773 L 8774,8965 9033,8965 8514,9695 7994,8965 8254,8965 8254,6773 8774,6773 Z"/>
   <rect fill="none" stroke="none" x="7994" y="6772" width="1041" height="2924"/>
   <rect fill="none" stroke="none" x="7994" y="6774" width="1040" height="2923"/>
  </g>
  <g>
   <path fill="rgb(0,153,0)" stroke="none" d="M 9930,6769 L 9930,8668 10173,8668 9686,9300 9199,8668 9443,8668 9443,6769 9930,6769 Z"/>
   <rect fill="none" stroke="none" x="9199" y="6768" width="975" height="2533"/>
   <rect fill="none" stroke="none" x="9199" y="6770" width="975" height="2532"/>
  </g>
  <g>
   <path fill="rgb(0,153,0)" stroke="none" d="M 11063,6773 L 11063,8429 11306,8429 10819,8980 10331,8429 10574,8429 10574,6773 11063,6773 Z"/>
   <rect fill="none" stroke="none" x="10331" y="6773" width="976" height="2208"/>
   <rect fill="none" stroke="none" x="10330" y="6774" width="977" height="2208"/>
  </g>
  <g>
   <path fill="rgb(0,204,51)" stroke="none" d="M 12069,6773 L 12069,8234 12280,8234 11857,8721 11434,8234 11646,8234 11646,6773 12069,6773 Z"/>
   <rect fill="none" stroke="none" x="11434" y="6773" width="847" height="1949"/>
   <rect fill="none" stroke="none" x="11434" y="6774" width="847" height="1949"/>
  </g>
  <g>
   <path fill="rgb(0,204,51)" stroke="none" d="M 13059,6773 L 13059,8088 13253,8088 12864,8526 12474,8088 12668,8088 12668,6773 13059,6773 Z"/>
   <rect fill="none" stroke="none" x="12474" y="6772" width="780" height="1755"/>
   <rect fill="none" stroke="none" x="12473" y="6774" width="781" height="1754"/>
  </g>
  <g>
   <path fill="rgb(0,204,51)" stroke="none" d="M 13935,6774 L 13935,7990 14097,7990 13772,8395 13447,7990 13610,7990 13610,6774 13935,6774 Z"/>
   <rect fill="none" stroke="none" x="13447" y="6774" width="651" height="1622"/>
   <rect fill="none" stroke="none" x="13447" y="6774" width="651" height="1623"/>
  </g>
  <g>
   <path fill="rgb(0,204,0)" stroke="none" d="M 14769,6773 L 14769,7894 14906,7894 14631,8267 14356,7894 14494,7894 14494,6773 14769,6773 Z"/>
   <rect fill="none" stroke="none" x="14355" y="6772" width="552" height="1496"/>
   <rect fill="none" stroke="none" x="14356" y="6774" width="551" height="1495"/>
  </g>
  <g>
   <path fill="rgb(0,204,0)" stroke="none" d="M 15672,6774 L 15672,7845 15785,7845 15558,8202 15330,7845 15444,7845 15444,6774 15672,6774 Z"/>
   <rect fill="none" stroke="none" x="15329" y="6774" width="457" height="1429"/>
   <rect fill="none" stroke="none" x="15330" y="6774" width="456" height="1430"/>
  </g>
  <g>
   <path fill="rgb(255,51,51)" stroke="none" d="M 14519,6444 L 14519,6150 14422,6150 14617,6053 14813,6150 14715,6150 14715,6444 14519,6444 Z"/>
   <rect fill="none" stroke="none" x="14422" y="6053" width="393" height="392"/>
   <rect fill="none" stroke="none" x="14422" y="6053" width="391" height="391"/>
  </g>
  <g>
   <path fill="rgb(0,153,0)" stroke="none" d="M 4473,6721 L 4473,10598 4930,10598 4015,11890 3099,10598 3557,10598 3557,6721 4473,6721 Z"/>
   <rect fill="none" stroke="none" x="3099" y="6720" width="1832" height="5171"/>
   <rect fill="none" stroke="none" x="3099" y="6722" width="1832" height="5170"/>
  </g>
 </g>
</svg>