<?xml version="1.0" encoding="UTF-8"?>

<svg version="1.2" baseProfile="tiny" width="80mm" height="105mm" viewBox="0 0 8000 10500" preserveAspectRatio="xMidYMid" fill-rule="evenodd" stroke-width="28.222" stroke-linejoin="round" xmlns="http://www.w3.org/2000/svg" xmlns:xlink="http://www.w3.org/1999/xlink" xml:space="preserve">
 <g visibility="visible" id="MasterSlide_1_Standard">
  <desc>Master slide
  </desc>
  <rect fill="none" stroke="none" x="0" y="0" width="8000" height="10500"/>
 </g>
 <g visibility="visible" id="Slide_1_page2">
  <g>
   <defs>
    <linearGradient id="Gradient_1" gradientUnits="userSpaceOnUse" x1="1710" y1="-9" x2="6091" y2="4388">
     <stop offset="0.3" stop-color="rgb(238,238,238)"/>
     <stop offset="1" stop-color="rgb(153,153,153)"/>
    </linearGradient>
   </defs>
   <path fill="url(#Gradient_1)" stroke="rgb(128,128,128)" id="Drawing_1_0" stroke-linejoin="round" d="M 5318,2753 L 5274,2679 5227,2606 5177,2536 5122,2469 5064,2404 5003,2342 4939,2283 4872,2227 4802,2175 4729,2126 4654,2080 4577,2039 4498,2001 4416,1966 4333,1936 4249,1910 4163,1888 4077,1870 3989,1857 3901,1847 3813,1842 3724,1841 3635,1845 3547,1852 3459,1864 3372,1880 3286,1901 3201,1925 3118,1953 3036,1986 2956,2022 2877,2063 2801,2107 2728,2154 2657,2205 2588,2260 2523,2317 2460,2378 2401,2442 2345,2508 2293,2577 2245,2649 2200,2722 2159,2798 2122,2876 2089,2955 2060,3036 2036,3118 2015,3201 1999,3285 1988,3370 1981,3455 1978,3541 900,3535 904,3398 916,3260 934,3124 960,2989 993,2855 1032,2723 1078,2593 1131,2465 1191,2340 1257,2218 1329,2099 1407,1984 1491,1873 1581,1766 1676,1664 1776,1566 1882,1473 1992,1386 2106,1304 2224,1227 2347,1157 2472,1092 2601,1033 2733,981 2868,935 3004,896 3143,863 3283,837 3424,818 3566,806 3708,800 3851,802 3993,810 4135,825 4275,847 4415,876 4553,911 4688,953 4822,1002 4952,1057 5080,1118 5205,1185 5325,1258 5442,1337 5555,1422 5663,1511 5766,1606 5864,1706 5957,1810 6044,1919 6126,2031 6202,2148 6271,2268 6903,1948 6378,3580 4687,3074 5318,2753 Z"/>
   <rect fill="none" stroke="none" x="900" y="800" width="5701" height="5501"/>
  </g>
  <g>
   <defs>
    <linearGradient id="Gradient_2" gradientUnits="userSpaceOnUse" x1="3697" y1="4019" x2="3697" y2="6798">
     <stop offset="0" stop-color="rgb(221,221,221)"/>
     <stop offset="1" stop-color="rgb(128,128,128)"/>
    </linearGradient>
   </defs>
   <path fill="url(#Gradient_2)" stroke="rgb(128,128,128)" id="Drawing_2_0" stroke-linejoin="round" d="M 2280,4846 L 2324,4920 2371,4993 2422,5063 2477,5130 2535,5195 2596,5257 2660,5316 2727,5372 2797,5424 2870,5473 2945,5518 3022,5559 3101,5597 3183,5632 3266,5662 3350,5688 3436,5710 3522,5728 3610,5741 3698,5751 3786,5756 3875,5757 3964,5753 4052,5746 4140,5734 4227,5718 4313,5697 4398,5673 4481,5645 4563,5612 4643,5576 4722,5535 4798,5491 4871,5443 4942,5392 5011,5337 5076,5280 5139,5219 5198,5155 5254,5089 5306,5020 5353,4948 5398,4875 5439,4799 5476,4721 5509,4642 5538,4561 5562,4479 5583,4396 5599,4312 5610,4227 5617,4142 5620,4056 6698,4062 6694,4199 6682,4337 6664,4473 6638,4608 6605,4742 6566,4874 6521,5004 6468,5132 6408,5257 6342,5379 6270,5498 6192,5613 6108,5724 6018,5831 5923,5933 5823,6031 5717,6124 5607,6211 5493,6293 5375,6370 5252,6440 5127,6505 4998,6564 4866,6616 4731,6663 4595,6702 4456,6735 4316,6761 4175,6780 4033,6792 3891,6798 3748,6796 3606,6788 3464,6773 3324,6751 3184,6722 3046,6687 2911,6645 2777,6597 2647,6542 2519,6481 2394,6414 2274,6341 2157,6262 2044,6177 1936,6088 1833,5993 1735,5893 1642,5789 1555,5680 1473,5568 1397,5451 1328,5331 696,5652 1220,4019 2911,4524 2280,4846 Z"/>
   <rect fill="none" stroke="none" x="997" y="1297" width="5704" height="5504"/>
  </g>
 </g>
</svg>